<svg width="36" height="36" viewBox="0 0 36 36" fill="none" xmlns="http://www.w3.org/2000/svg">
<path d="M18 35C27.3888 35 35 27.3888 35 18C35 8.61116 27.3888 1 18 1C8.61116 1 1 8.61116 1 18C1 27.3888 8.61116 35 18 35Z" stroke="#353535" stroke-width="2" stroke-miterlimit="10"/>
<path d="M26.5 26.5C31.1944 26.5 35 22.6944 35 18C35 13.3056 31.1944 9.5 26.5 9.5C21.8056 9.5 18 13.3056 18 18C18 22.6944 21.8056 26.5 26.5 26.5Z" stroke="#353535" stroke-width="2" stroke-miterlimit="10"/>
<path d="M22.25 22.25C24.5972 22.25 26.5 20.3472 26.5 18C26.5 15.6528 24.5972 13.75 22.25 13.75C19.9028 13.75 18 15.6528 18 18C18 20.3472 19.9028 22.25 22.25 22.25Z" stroke="#353535" stroke-width="2" stroke-miterlimit="10"/>
</svg>
